<?xml version="1.0" encoding="UTF-8" standalone="no"?>
<!DOCTYPE svg PUBLIC "-//W3C//DTD SVG 1.1//EN" "http://www.w3.org/Graphics/SVG/1.1/DTD/svg11.dtd">
<svg width="100%" height="100%" viewBox="0 0 3508 2481" version="1.1" xmlns="http://www.w3.org/2000/svg" xmlns:xlink="http://www.w3.org/1999/xlink" xml:space="preserve" xmlns:serif="http://www.serif.com/" style="fill-rule:evenodd;clip-rule:evenodd;stroke-linejoin:round;stroke-miterlimit:2;">
    <g transform="matrix(8.408984,0,0,8.408984,-2214.515554,210.391662)">
        <g transform="matrix(0.044824,0.044824,-0.096739,0.096739,439.729896,-153.978782)">
            <path d="M1890.156,2273.077L1262.392,2273.077L1262.392,1783.152L1791.07,1783.152L1791.07,1862.249L1433.097,1862.249L1433.097,2193.981L1705.808,2193.981L1705.808,1988.066L2191.019,1988.066L2191.019,2067.079L1876.332,2067.079L1876.332,2193.981L1890.156,2193.981L1890.156,2273.077Z" style="fill:rgb(243,148,60);"/>
        </g>
        <g transform="matrix(-0.158672,0.158672,-0.096739,-0.096739,857.160245,21.196512)">
            <path d="M2149.224,1988.066L2149.224,2272.535L2101.052,2272.535L2101.052,2067.079L1850.528,2067.079L1850.528,1988.066L2149.224,1988.066Z" style="fill:rgb(35,51,107);"/>
        </g>
    </g>
    <g transform="matrix(9.579706,0,0,9.579706,-9458.429901,-4200.75924)">
        <g transform="matrix(1,0,0,1,-494.807707,-4.88885)">
            <path d="M1619.459,568.795C1618.89,566.338 1617.498,564.621 1615.285,563.644C1614.048,563.107 1612.672,562.838 1611.159,562.838C1608.261,562.838 1605.881,563.931 1604.018,566.116C1602.154,568.301 1601.222,571.586 1601.222,575.972C1601.222,580.391 1602.231,583.518 1604.249,585.354C1606.268,587.189 1608.563,588.107 1611.134,588.107C1613.657,588.107 1615.724,587.383 1617.335,585.936C1618.947,584.488 1619.94,582.591 1620.314,580.246L1611.989,580.246L1611.989,574.24L1626.979,574.24L1626.979,593.551L1621.998,593.551L1621.242,589.059C1619.793,590.76 1618.491,591.96 1617.335,592.656C1615.35,593.871 1612.908,594.479 1610.011,594.479C1605.242,594.479 1601.336,592.828 1598.292,589.526C1595.119,586.208 1593.532,581.67 1593.532,575.912C1593.532,570.089 1595.135,565.421 1598.341,561.907C1601.548,558.394 1605.788,556.637 1611.061,556.637C1615.635,556.637 1619.309,557.797 1622.084,560.116C1624.859,562.436 1626.45,565.329 1626.857,568.795L1619.459,568.795ZM1611.037,556.637" style="fill:rgb(243,148,60);fill-rule:nonzero;"/>
        </g>
        <g transform="matrix(1,0,0,1,-494.807707,-4.88885)">
            <path d="M1648.048,566.305C1648.178,566.305 1648.288,566.309 1648.378,566.317C1648.467,566.326 1648.667,566.338 1648.976,566.354L1648.976,573.483C1648.537,573.434 1648.146,573.402 1647.804,573.385C1647.462,573.369 1647.186,573.361 1646.974,573.361C1644.175,573.361 1642.295,574.272 1641.334,576.095C1640.797,577.121 1640.529,578.699 1640.529,580.832L1640.529,593.551L1633.522,593.551L1633.522,566.94L1640.163,566.94L1640.163,571.579C1641.237,569.805 1642.173,568.592 1642.97,567.941C1644.272,566.85 1645.965,566.305 1648.048,566.305Z" style="fill-rule:nonzero;"/>
        </g>
        <g transform="matrix(1,0,0,1,-494.807707,-4.88885)">
            <path d="M1664.992,588.62C1667.026,588.62 1668.589,587.897 1669.679,586.45C1670.77,585.004 1671.315,582.948 1671.315,580.282C1671.315,577.617 1670.77,575.565 1669.679,574.127C1668.589,572.688 1667.026,571.969 1664.992,571.969C1662.957,571.969 1661.391,572.688 1660.292,574.127C1659.193,575.565 1658.644,577.617 1658.644,580.282C1658.644,582.948 1659.193,585.004 1660.292,586.45C1661.391,587.897 1662.957,588.62 1664.992,588.62ZM1678.615,580.282C1678.615,584.185 1677.492,587.523 1675.246,590.296C1672.999,593.068 1669.59,594.455 1665.016,594.455C1660.442,594.455 1657.033,593.068 1654.787,590.296C1652.54,587.523 1651.417,584.185 1651.417,580.282C1651.417,576.444 1652.54,573.119 1654.787,570.306C1657.033,567.492 1660.442,566.085 1665.016,566.085C1669.59,566.085 1672.999,567.492 1675.246,570.306C1677.492,573.119 1678.615,576.444 1678.615,580.282ZM1665.016,566.085" style="fill-rule:nonzero;"/>
        </g>
        <g transform="matrix(1,0,0,1,-494.807707,-4.88885)">
            <path d="M1696.144,566.94L1703.2,566.94L1707.252,586.105L1711.403,566.94L1718.654,566.94L1710.939,593.551L1703.786,593.551L1699.611,574.167L1695.387,593.551L1688.161,593.551L1680.69,566.94L1688.161,566.94L1692.311,586.032L1696.144,566.94Z" style="fill-rule:nonzero;"/>
        </g>
        <g transform="matrix(1,0,0,1,-494.807707,-4.88885)">
            <path d="M1723.048,581.623L1723.048,557.565L1738.551,557.565C1740.781,557.598 1742.636,557.858 1744.118,558.346C1746.64,559.176 1748.683,560.698 1750.246,562.912C1751.499,564.702 1752.353,566.639 1752.809,568.722C1753.265,570.806 1753.493,572.791 1753.493,574.679C1753.493,579.464 1752.532,583.517 1750.612,586.837C1748.008,591.313 1738.551,593.551 1738.551,593.551L1723.048,593.551L1723.048,587.317L1730.397,587.317L1730.397,587.301L1737.282,587.301C1740.83,587.301 1743.304,585.552 1744.704,582.052C1745.469,580.132 1745.851,577.845 1745.851,575.192C1745.851,571.53 1745.277,568.718 1744.13,566.757C1742.982,564.796 1740.7,563.815 1737.282,563.815L1730.348,563.815L1730.348,581.623L1723.048,581.623Z" style="fill:rgb(35,51,107);"/>
        </g>
        <g transform="matrix(1,0,0,1,-494.807707,-4.88885)">
            <path d="M1773.268,580.612C1772.829,580.889 1772.385,581.112 1771.937,581.283C1771.49,581.454 1770.875,581.613 1770.094,581.759L1768.532,582.052C1767.067,582.313 1766.017,582.63 1765.382,583.004C1764.308,583.639 1763.771,584.624 1763.771,585.959C1763.771,587.147 1764.101,588.005 1764.76,588.534C1765.419,589.063 1766.22,589.328 1767.164,589.328C1768.662,589.328 1770.041,588.888 1771.303,588.009C1772.564,587.13 1773.219,585.527 1773.268,583.2L1773.268,580.612ZM1769.044,577.365C1770.33,577.202 1771.25,576.999 1771.803,576.754C1772.796,576.331 1773.292,575.672 1773.292,574.777C1773.292,573.686 1772.914,572.934 1772.157,572.519C1771.4,572.104 1770.289,571.896 1768.825,571.896C1767.181,571.896 1766.017,572.303 1765.333,573.117C1764.845,573.719 1764.52,574.533 1764.357,575.558L1757.643,575.558C1757.789,573.231 1758.441,571.318 1759.596,569.821C1761.435,567.477 1764.593,566.305 1769.069,566.305C1771.982,566.305 1774.57,566.883 1776.832,568.039C1779.095,569.194 1780.226,571.375 1780.226,574.582L1780.226,586.789C1780.226,587.635 1780.242,588.66 1780.275,589.865C1780.324,590.776 1780.462,591.395 1780.69,591.72C1780.918,592.046 1781.26,592.314 1781.715,592.526L1781.715,593.551L1774.147,593.551C1773.935,593.014 1773.789,592.51 1773.707,592.038C1773.626,591.566 1773.561,591.029 1773.512,590.426C1772.552,591.468 1771.445,592.355 1770.192,593.087C1768.694,593.95 1767.002,594.381 1765.114,594.381C1762.705,594.381 1760.715,593.694 1759.144,592.318C1757.574,590.943 1756.789,588.994 1756.789,586.471C1756.789,583.2 1758.05,580.832 1760.573,579.367C1761.956,578.569 1763.991,578 1766.676,577.658L1769.044,577.365ZM1769.411,566.305" style="fill-rule:nonzero;"/>
        </g>
        <g transform="matrix(1,0,0,1,-494.807707,-4.88885)">
            <path d="M1787.477,598.654L1788.356,598.703C1789.039,598.735 1789.691,598.711 1790.309,598.629C1790.928,598.548 1791.448,598.361 1791.872,598.068C1792.278,597.791 1792.657,597.213 1793.007,596.335C1793.357,595.456 1793.499,594.918 1793.434,594.723L1783.668,566.94L1791.408,566.94L1797.218,586.569L1802.711,566.94L1810.109,566.94L1800.978,593.112C1799.22,598.157 1797.829,601.286 1796.803,602.499C1795.778,603.712 1793.727,604.318 1790.651,604.318C1790.032,604.318 1789.536,604.314 1789.162,604.306C1788.787,604.298 1788.226,604.269 1787.477,604.22L1787.477,598.654ZM1796.901,566.232" style="fill-rule:nonzero;"/>
        </g>
        <g transform="matrix(1,0,0,1,-494.807707,-4.88885)">
            <path d="M1819.63,585.055C1819.777,586.292 1820.094,587.171 1820.582,587.692C1821.445,588.62 1823.04,589.084 1825.368,589.084C1826.735,589.084 1827.821,588.88 1828.627,588.473C1829.433,588.066 1829.835,587.456 1829.835,586.642C1829.835,585.861 1829.51,585.267 1828.859,584.86C1828.208,584.453 1825.791,583.753 1821.608,582.76C1818.597,582.012 1816.473,581.076 1815.236,579.953C1813.999,578.846 1813.38,577.251 1813.38,575.168C1813.38,572.71 1814.345,570.598 1816.273,568.832C1818.202,567.066 1820.916,566.183 1824.415,566.183C1827.736,566.183 1830.442,566.846 1832.533,568.173C1834.625,569.499 1835.825,571.79 1836.134,575.045L1829.176,575.045C1829.079,574.15 1828.826,573.442 1828.419,572.921C1827.654,571.977 1826.352,571.505 1824.513,571.505C1822.999,571.505 1821.921,571.741 1821.278,572.213C1820.635,572.685 1820.314,573.239 1820.314,573.874C1820.314,574.671 1820.656,575.249 1821.339,575.607C1822.023,575.981 1824.44,576.624 1828.59,577.536C1831.357,578.187 1833.432,579.171 1834.816,580.49C1836.183,581.824 1836.867,583.493 1836.867,585.495C1836.867,588.131 1835.886,590.284 1833.925,591.952C1831.963,593.62 1828.932,594.455 1824.831,594.455C1820.648,594.455 1817.559,593.572 1815.565,591.806C1813.572,590.04 1812.575,587.79 1812.575,585.055L1819.63,585.055ZM1824.953,566.183" style="fill-rule:nonzero;"/>
        </g>
    </g>
    <g transform="matrix(9.579706,0,0,9.579706,-9458.429901,-4200.75924)">
        <g transform="matrix(1,0,0,1,-494.807707,-4.88885)">
            <path d="M1619.459,568.795C1618.89,566.338 1617.498,564.621 1615.285,563.644C1614.048,563.107 1612.672,562.838 1611.159,562.838C1608.261,562.838 1605.881,563.931 1604.018,566.116C1602.154,568.301 1601.222,571.586 1601.222,575.972C1601.222,580.391 1602.231,583.518 1604.249,585.354C1606.268,587.189 1608.563,588.107 1611.134,588.107C1613.657,588.107 1615.724,587.383 1617.335,585.936C1618.947,584.488 1619.94,582.591 1620.314,580.246L1611.989,580.246L1611.989,574.24L1626.979,574.24L1626.979,593.551L1621.998,593.551L1621.242,589.059C1619.793,590.76 1618.491,591.96 1617.335,592.656C1615.35,593.871 1612.908,594.479 1610.011,594.479C1605.242,594.479 1601.336,592.828 1598.292,589.526C1595.119,586.208 1593.532,581.67 1593.532,575.912C1593.532,570.089 1595.135,565.421 1598.341,561.907C1601.548,558.394 1605.788,556.637 1611.061,556.637C1615.635,556.637 1619.309,557.797 1622.084,560.116C1624.859,562.436 1626.45,565.329 1626.857,568.795L1619.459,568.795ZM1611.037,556.637" style="fill:rgb(243,148,60);fill-rule:nonzero;"/>
        </g>
        <g transform="matrix(1,0,0,1,-494.807707,-4.88885)">
            <path d="M1648.048,566.305C1648.178,566.305 1648.288,566.309 1648.378,566.317C1648.467,566.326 1648.667,566.338 1648.976,566.354L1648.976,573.483C1648.537,573.434 1648.146,573.402 1647.804,573.385C1647.462,573.369 1647.186,573.361 1646.974,573.361C1644.175,573.361 1642.295,574.272 1641.334,576.095C1640.797,577.121 1640.529,578.699 1640.529,580.832L1640.529,593.551L1633.522,593.551L1633.522,566.94L1640.163,566.94L1640.163,571.579C1641.237,569.805 1642.173,568.592 1642.97,567.941C1644.272,566.85 1645.965,566.305 1648.048,566.305Z" style="fill-rule:nonzero;"/>
        </g>
        <g transform="matrix(1,0,0,1,-494.807707,-4.88885)">
            <path d="M1664.992,588.62C1667.026,588.62 1668.589,587.897 1669.679,586.45C1670.77,585.004 1671.315,582.948 1671.315,580.282C1671.315,577.617 1670.77,575.565 1669.679,574.127C1668.589,572.688 1667.026,571.969 1664.992,571.969C1662.957,571.969 1661.391,572.688 1660.292,574.127C1659.193,575.565 1658.644,577.617 1658.644,580.282C1658.644,582.948 1659.193,585.004 1660.292,586.45C1661.391,587.897 1662.957,588.62 1664.992,588.62ZM1678.615,580.282C1678.615,584.185 1677.492,587.523 1675.246,590.296C1672.999,593.068 1669.59,594.455 1665.016,594.455C1660.442,594.455 1657.033,593.068 1654.787,590.296C1652.54,587.523 1651.417,584.185 1651.417,580.282C1651.417,576.444 1652.54,573.119 1654.787,570.306C1657.033,567.492 1660.442,566.085 1665.016,566.085C1669.59,566.085 1672.999,567.492 1675.246,570.306C1677.492,573.119 1678.615,576.444 1678.615,580.282ZM1665.016,566.085" style="fill-rule:nonzero;"/>
        </g>
        <g transform="matrix(1,0,0,1,-494.807707,-4.88885)">
            <path d="M1696.144,566.94L1703.2,566.94L1707.252,586.105L1711.403,566.94L1718.654,566.94L1710.939,593.551L1703.786,593.551L1699.611,574.167L1695.387,593.551L1688.161,593.551L1680.69,566.94L1688.161,566.94L1692.311,586.032L1696.144,566.94Z" style="fill-rule:nonzero;"/>
        </g>
        <g transform="matrix(1,0,0,1,-494.807707,-4.88885)">
            <path d="M1723.048,581.623L1723.048,557.565L1738.551,557.565C1740.781,557.598 1742.636,557.858 1744.118,558.346C1746.64,559.176 1748.683,560.698 1750.246,562.912C1751.499,564.702 1752.353,566.639 1752.809,568.722C1753.265,570.806 1753.493,572.791 1753.493,574.679C1753.493,579.464 1752.532,583.517 1750.612,586.837C1748.008,591.313 1738.551,593.551 1738.551,593.551L1723.048,593.551L1723.048,587.317L1730.397,587.317L1730.397,587.301L1737.282,587.301C1740.83,587.301 1743.304,585.552 1744.704,582.052C1745.469,580.132 1745.851,577.845 1745.851,575.192C1745.851,571.53 1745.277,568.718 1744.13,566.757C1742.982,564.796 1740.7,563.815 1737.282,563.815L1730.348,563.815L1730.348,581.623L1723.048,581.623Z" style="fill:rgb(35,51,107);"/>
        </g>
        <g transform="matrix(1,0,0,1,-494.807707,-4.88885)">
            <path d="M1773.268,580.612C1772.829,580.889 1772.385,581.112 1771.937,581.283C1771.49,581.454 1770.875,581.613 1770.094,581.759L1768.532,582.052C1767.067,582.313 1766.017,582.63 1765.382,583.004C1764.308,583.639 1763.771,584.624 1763.771,585.959C1763.771,587.147 1764.101,588.005 1764.76,588.534C1765.419,589.063 1766.22,589.328 1767.164,589.328C1768.662,589.328 1770.041,588.888 1771.303,588.009C1772.564,587.13 1773.219,585.527 1773.268,583.2L1773.268,580.612ZM1769.044,577.365C1770.33,577.202 1771.25,576.999 1771.803,576.754C1772.796,576.331 1773.292,575.672 1773.292,574.777C1773.292,573.686 1772.914,572.934 1772.157,572.519C1771.4,572.104 1770.289,571.896 1768.825,571.896C1767.181,571.896 1766.017,572.303 1765.333,573.117C1764.845,573.719 1764.52,574.533 1764.357,575.558L1757.643,575.558C1757.789,573.231 1758.441,571.318 1759.596,569.821C1761.435,567.477 1764.593,566.305 1769.069,566.305C1771.982,566.305 1774.57,566.883 1776.832,568.039C1779.095,569.194 1780.226,571.375 1780.226,574.582L1780.226,586.789C1780.226,587.635 1780.242,588.66 1780.275,589.865C1780.324,590.776 1780.462,591.395 1780.69,591.72C1780.918,592.046 1781.26,592.314 1781.715,592.526L1781.715,593.551L1774.147,593.551C1773.935,593.014 1773.789,592.51 1773.707,592.038C1773.626,591.566 1773.561,591.029 1773.512,590.426C1772.552,591.468 1771.445,592.355 1770.192,593.087C1768.694,593.95 1767.002,594.381 1765.114,594.381C1762.705,594.381 1760.715,593.694 1759.144,592.318C1757.574,590.943 1756.789,588.994 1756.789,586.471C1756.789,583.2 1758.05,580.832 1760.573,579.367C1761.956,578.569 1763.991,578 1766.676,577.658L1769.044,577.365ZM1769.411,566.305" style="fill-rule:nonzero;"/>
        </g>
        <g transform="matrix(1,0,0,1,-494.807707,-4.88885)">
            <path d="M1787.477,598.654L1788.356,598.703C1789.039,598.735 1789.691,598.711 1790.309,598.629C1790.928,598.548 1791.448,598.361 1791.872,598.068C1792.278,597.791 1792.657,597.213 1793.007,596.335C1793.357,595.456 1793.499,594.918 1793.434,594.723L1783.668,566.94L1791.408,566.94L1797.218,586.569L1802.711,566.94L1810.109,566.94L1800.978,593.112C1799.22,598.157 1797.829,601.286 1796.803,602.499C1795.778,603.712 1793.727,604.318 1790.651,604.318C1790.032,604.318 1789.536,604.314 1789.162,604.306C1788.787,604.298 1788.226,604.269 1787.477,604.22L1787.477,598.654ZM1796.901,566.232" style="fill-rule:nonzero;"/>
        </g>
        <g transform="matrix(1,0,0,1,-494.807707,-4.88885)">
            <path d="M1819.63,585.055C1819.777,586.292 1820.094,587.171 1820.582,587.692C1821.445,588.62 1823.04,589.084 1825.368,589.084C1826.735,589.084 1827.821,588.88 1828.627,588.473C1829.433,588.066 1829.835,587.456 1829.835,586.642C1829.835,585.861 1829.51,585.267 1828.859,584.86C1828.208,584.453 1825.791,583.753 1821.608,582.76C1818.597,582.012 1816.473,581.076 1815.236,579.953C1813.999,578.846 1813.38,577.251 1813.38,575.168C1813.38,572.71 1814.345,570.598 1816.273,568.832C1818.202,567.066 1820.916,566.183 1824.415,566.183C1827.736,566.183 1830.442,566.846 1832.533,568.173C1834.625,569.499 1835.825,571.79 1836.134,575.045L1829.176,575.045C1829.079,574.15 1828.826,573.442 1828.419,572.921C1827.654,571.977 1826.352,571.505 1824.513,571.505C1822.999,571.505 1821.921,571.741 1821.278,572.213C1820.635,572.685 1820.314,573.239 1820.314,573.874C1820.314,574.671 1820.656,575.249 1821.339,575.607C1822.023,575.981 1824.44,576.624 1828.59,577.536C1831.357,578.187 1833.432,579.171 1834.816,580.49C1836.183,581.824 1836.867,583.493 1836.867,585.495C1836.867,588.131 1835.886,590.284 1833.925,591.952C1831.963,593.62 1828.932,594.455 1824.831,594.455C1820.648,594.455 1817.559,593.572 1815.565,591.806C1813.572,590.04 1812.575,587.79 1812.575,585.055L1819.63,585.055ZM1824.953,566.183" style="fill-rule:nonzero;"/>
        </g>
    </g>
</svg>
